<svg width="16" height="16" viewBox="0 0 16 16" fill="none" xmlns="http://www.w3.org/2000/svg">
<path d="M4 5.33301C4 4.27214 4.42143 3.25473 5.17157 2.50458C5.92172 1.75444 6.93913 1.33301 8 1.33301C9.06087 1.33301 10.0783 1.75444 10.8284 2.50458C11.5786 3.25473 12 4.27214 12 5.33301C12 9.99967 14 11.333 14 11.333H2C2 11.333 4 9.99967 4 5.33301Z" stroke="#000000" stroke-linecap="round" stroke-linejoin="round"/>
<path d="M6.66663 14C6.66663 14.3536 6.8071 14.6928 7.05715 14.9428C7.3072 15.1929 7.64634 15.3333 7.99996 15.3333C8.35358 15.3333 8.69272 15.1929 8.94277 14.9428C9.19282 14.6928 9.33329 14.3536 9.33329 14" stroke="#000000" stroke-linecap="round" stroke-linejoin="round"/>
</svg>
