<svg width="15" height="19" viewBox="0 0 15 19" fill="none" xmlns="http://www.w3.org/2000/svg">
<path d="M7.5 2.59091V0L3.75 3.45455L7.5 6.90909V4.31818C10.6031 4.31818 13.125 6.64136 13.125 9.5C13.125 10.3723 12.8906 11.2014 12.4687 11.9182L13.8375 13.1791C14.5688 12.1168 15 10.8559 15 9.5C15 5.68273 11.6438 2.59091 7.5 2.59091ZM7.5 14.6818C4.39687 14.6818 1.875 12.3586 1.875 9.5C1.875 8.62773 2.10937 7.79864 2.53125 7.08182L1.1625 5.82091C0.43125 6.88318 0 8.14409 0 9.5C0 13.3173 3.35625 16.4091 7.5 16.4091V19L11.25 15.5455L7.5 12.0909V14.6818Z" fill="#000000"/>
</svg>
