<svg width="16" height="16" viewBox="0 0 16 16" fill="none" xmlns="http://www.w3.org/2000/svg">
<path d="M5.66667 2H3C2.44772 2 2 2.44772 2 3V7C2 7.55228 2.44772 8 3 8H5.66667C6.21895 8 6.66667 7.55228 6.66667 7V3C6.66667 2.44772 6.21895 2 5.66667 2Z" stroke="#000000" stroke-linecap="round" stroke-linejoin="round"/>
<path d="M13 2H10.3334C9.78109 2 9.33337 2.44772 9.33337 3V4.33333C9.33337 4.88562 9.78109 5.33333 10.3334 5.33333H13C13.5523 5.33333 14 4.88562 14 4.33333V3C14 2.44772 13.5523 2 13 2Z" stroke="#000000" stroke-linecap="round" stroke-linejoin="round"/>
<path d="M13 8H10.3334C9.78109 8 9.33337 8.44772 9.33337 9V13C9.33337 13.5523 9.78109 14 10.3334 14H13C13.5523 14 14 13.5523 14 13V9C14 8.44772 13.5523 8 13 8Z" stroke="#000000" stroke-linecap="round" stroke-linejoin="round"/>
<path d="M5.66667 10.667H3C2.44772 10.667 2 11.1147 2 11.667V13.0003C2 13.5526 2.44772 14.0003 3 14.0003H5.66667C6.21895 14.0003 6.66667 13.5526 6.66667 13.0003V11.667C6.66667 11.1147 6.21895 10.667 5.66667 10.667Z" stroke="#000000" stroke-linecap="round" stroke-linejoin="round"/>
</svg>
