<svg width="16" height="16" viewBox="0 0 16 16" fill="none" xmlns="http://www.w3.org/2000/svg">
<path d="M6.66667 8.00033C8.13943 8.00033 9.33333 6.80642 9.33333 5.33366C9.33333 3.8609 8.13943 2.66699 6.66667 2.66699C5.19391 2.66699 4 3.8609 4 5.33366C4 6.80642 5.19391 8.00033 6.66667 8.00033Z" fill="black"/>
<path d="M7.11398 8.67967C6.96732 8.67301 6.82065 8.66634 6.66732 8.66634C5.05398 8.66634 3.54732 9.11301 2.26065 9.87967C1.67398 10.2263 1.33398 10.8797 1.33398 11.5663V13.333H7.50732C6.98065 12.5797 6.66732 11.6597 6.66732 10.6663C6.66732 9.95301 6.83398 9.28634 7.11398 8.67967ZM13.834 10.6663C13.834 10.5197 13.814 10.3863 13.794 10.2463L14.554 9.57301L13.8873 8.41967L12.9206 8.74634C12.7073 8.56634 12.4673 8.42634 12.2007 8.32634L12.0007 7.33301H10.6673L10.4673 8.32634C10.2007 8.42634 9.96065 8.56634 9.74732 8.74634L8.78065 8.41967L8.11398 9.57301L8.87398 10.2463C8.85398 10.3863 8.83398 10.5197 8.83398 10.6663C8.83398 10.813 8.85398 10.9463 8.87398 11.0863L8.11398 11.7597L8.78065 12.913L9.74732 12.5863C9.96065 12.7663 10.2007 12.9063 10.4673 13.0063L10.6673 13.9997H12.0007L12.2007 13.0063C12.4673 12.9063 12.7073 12.7663 12.9206 12.5863L13.8873 12.913L14.554 11.7597L13.794 11.0863C13.814 10.9463 13.834 10.813 13.834 10.6663ZM11.334 11.9997C10.6007 11.9997 10.0007 11.3997 10.0007 10.6663C10.0007 9.93301 10.6007 9.33301 11.334 9.33301C12.0673 9.33301 12.6673 9.93301 12.6673 10.6663C12.6673 11.3997 12.0673 11.9997 11.334 11.9997Z" fill="#000000"/>
</svg>
