<svg width="16" height="16" viewBox="0 0 16 16" fill="none" xmlns="http://www.w3.org/2000/svg">
<g clip-path="url(#clip0_2854_56)">
<path d="M9.27333 5.60667L8.33333 4.66667L5 8L8.33333 11.3333L9.27333 10.3933L7.55333 8.66667H14V7.33333H7.55333L9.27333 5.60667ZM3.33333 14H12.6667C13.4067 14 14 13.4 14 12.6667V10H12.6667V12.6667H3.33333V3.33333H12.6667V6H14V3.33333C14 2.6 13.4067 2 12.6667 2H3.33333C2.6 2 2 2.6 2 3.33333V12.6667C2 13.4 2.6 14 3.33333 14Z" fill="#000000"/>
</g>
<defs>
<clipPath id="clip0_2854_56">
<rect width="16" height="16" fill="white" transform="matrix(-1 0 0 -1 16 16)"/>
</clipPath>
</defs>
</svg>
