<svg width="16" height="16" viewBox="0 0 16 16" fill="none" xmlns="http://www.w3.org/2000/svg">
<g clip-path="url(#clip0_2430_1188)">
<path d="M8 10C9.10457 10 10 9.10457 10 8C10 6.89543 9.10457 6 8 6C6.89543 6 6 6.89543 6 8C6 9.10457 6.89543 10 8 10Z" stroke="#000000" stroke-linecap="round" stroke-linejoin="round"/>
<path d="M12.9333 10.0003C12.8491 10.1987 12.8232 10.4169 12.8586 10.6294C12.8941 10.842 12.9893 11.04 13.1333 11.2003L13.2 11.267C13.3528 11.3816 13.4792 11.5277 13.5706 11.6955C13.6621 11.8632 13.7164 12.0486 13.7299 12.2391C13.7435 12.4297 13.7159 12.6209 13.6491 12.7999C13.5823 12.9789 13.4778 13.1414 13.3428 13.2765C13.2077 13.4115 13.0452 13.516 12.8662 13.5828C12.6872 13.6496 12.496 13.6772 12.3054 13.6636C12.1149 13.6501 11.9295 13.5958 11.7618 13.5043C11.594 13.4129 11.4479 13.2865 11.3333 13.1337L11.2666 13.067C11.1063 12.923 10.9083 12.8278 10.6957 12.7923C10.4832 12.7569 10.265 12.7828 10.0666 12.867C9.87292 12.9544 9.7077 13.0945 9.58982 13.2713C9.47194 13.4482 9.40615 13.6546 9.39996 13.867V14.0003C9.39996 14.3539 9.25948 14.6931 9.00944 14.9431C8.75939 15.1932 8.42025 15.3337 8.06663 15.3337C7.713 15.3337 7.37387 15.1932 7.12382 14.9431C6.87377 14.6931 6.73329 14.3539 6.73329 14.0003V13.9337C6.7271 13.7212 6.66131 13.5148 6.54343 13.338C6.42555 13.1612 6.26033 13.0211 6.06663 12.9337C5.86828 12.8495 5.65005 12.8236 5.43752 12.859C5.22498 12.8944 5.02695 12.9897 4.86663 13.1337L4.79996 13.2003C4.68534 13.3531 4.53922 13.4796 4.3715 13.571C4.20377 13.6624 4.01836 13.7168 3.82781 13.7303C3.63726 13.7438 3.44603 13.7163 3.26706 13.6495C3.08809 13.5827 2.92556 13.4782 2.79048 13.3431C2.65541 13.2081 2.55093 13.0455 2.48413 12.8666C2.41733 12.6876 2.38977 12.4964 2.40331 12.3058C2.41686 12.1153 2.47118 11.9298 2.56262 11.7621C2.65406 11.5944 2.78047 11.4483 2.93329 11.3337L2.99996 11.267C3.14392 11.1067 3.23919 10.9086 3.27462 10.6961C3.31004 10.4836 3.28414 10.2653 3.19996 10.067C3.11254 9.87329 2.97243 9.70807 2.79561 9.59019C2.61879 9.47231 2.41238 9.40652 2.19996 9.40033H1.99996C1.64634 9.40033 1.3072 9.25985 1.05715 9.0098C0.807102 8.75975 0.666626 8.42061 0.666626 8.06699C0.666626 7.71337 0.807102 7.37423 1.05715 7.12418C1.3072 6.87413 1.64634 6.73366 1.99996 6.73366H2.06663C2.27905 6.72747 2.48545 6.66168 2.66227 6.5438C2.8391 6.42592 2.97921 6.26069 3.06663 6.06699C3.15081 5.86865 3.17671 5.65042 3.14128 5.43788C3.10586 5.22535 3.01059 5.02731 2.86663 4.86699L2.79996 4.80033C2.64714 4.68571 2.52073 4.53959 2.42929 4.37187C2.33785 4.20414 2.28352 4.01873 2.26998 3.82818C2.25644 3.63763 2.284 3.44639 2.3508 3.26742C2.4176 3.08845 2.52207 2.92593 2.65715 2.79085C2.79223 2.65577 2.95476 2.5513 3.13373 2.4845C3.3127 2.4177 3.50393 2.39014 3.69448 2.40368C3.88503 2.41722 4.07044 2.47155 4.23817 2.56299C4.40589 2.65443 4.55201 2.78084 4.66663 2.93366L4.73329 3.00033C4.89361 3.14429 5.09165 3.23956 5.30418 3.27498C5.51672 3.31041 5.73495 3.28451 5.93329 3.20033C6.12699 3.11291 6.29222 2.97279 6.4101 2.79597C6.52798 2.61915 6.59377 2.41275 6.59996 2.20033V2.00033C6.59996 1.6467 6.74044 1.30757 6.99048 1.05752C7.24053 0.807468 7.57967 0.666992 7.93329 0.666992C8.28691 0.666992 8.62605 0.807468 8.8761 1.05752C9.12615 1.30757 9.26663 1.6467 9.26663 2.00033V2.06699C9.27282 2.27942 9.33861 2.48582 9.45649 2.66264C9.57437 2.83946 9.73959 2.97958 9.93329 3.06699C10.1316 3.15118 10.3499 3.17707 10.5624 3.14165C10.7749 3.10623 10.973 3.01095 11.1333 2.86699L11.2 2.80033C11.3146 2.6475 11.4607 2.52109 11.6284 2.42965C11.7961 2.33822 11.9816 2.28389 12.1721 2.27035C12.3627 2.2568 12.5539 2.28437 12.7329 2.35116C12.9118 2.41796 13.0744 2.52244 13.2094 2.65752C13.3445 2.79259 13.449 2.95512 13.5158 3.13409C13.5826 3.31306 13.6101 3.5043 13.5966 3.69484C13.5831 3.88539 13.5287 4.07081 13.4373 4.23853C13.3459 4.40626 13.2195 4.55237 13.0666 4.66699L13 4.73366C12.856 4.89398 12.7607 5.09201 12.7253 5.30455C12.6899 5.51709 12.7158 5.73532 12.8 5.93366C12.8874 6.12736 13.0275 6.29258 13.2043 6.41046C13.3811 6.52834 13.5875 6.59414 13.8 6.60033H14C14.3536 6.60033 14.6927 6.7408 14.9428 6.99085C15.1928 7.2409 15.3333 7.58004 15.3333 7.93366C15.3333 8.28728 15.1928 8.62642 14.9428 8.87647C14.6927 9.12652 14.3536 9.26699 14 9.26699H13.9333C13.7209 9.27318 13.5145 9.33897 13.3376 9.45685C13.1608 9.57474 13.0207 9.73996 12.9333 9.93366V10.0003Z" stroke="#000000" stroke-linecap="round" stroke-linejoin="round"/>
</g>
<defs>
<clipPath id="clip0_2430_1188">
<rect width="16" height="16" fill="white"/>
</clipPath>
</defs>
</svg>
