<svg width="39" height="40" viewBox="0 0 39 40" fill="none" xmlns="http://www.w3.org/2000/svg">
  <path
    d="M28.6406 0H10.3594C4.63805 0 0 4.47715 0 10V30C0 35.5229 4.63805 40 10.3594 40H28.6406C34.3619 40 39 35.5229 39 30V10C39 4.47715 34.3619 0 28.6406 0Z"
    fill="black"
  />
  <path
    d="M6.82495 33.1712V20.4883H8.48674L10.7079 27.2036H10.742L12.9463 20.4883H14.625V33.1712H12.8953V25.4581H12.8614L11.1489 30.9089H10.2842L8.58849 25.4581H8.55454V33.1712H6.82495Z"
    fill="white"
  />
  <path
    d="M21.4523 28.7354L20.4845 24.1398H20.4459L19.4784 28.7354H21.4523ZM16.575 33.1712L19.6523 20.4883H21.2976L24.375 33.1712H22.4006L21.8201 30.4456H19.1297L18.549 33.1712H16.575Z"
    fill="white"
  />
  <path
    d="M26.325 23.5365C26.325 23.0343 26.4106 22.5905 26.5816 22.2049C26.7526 21.8196 26.9806 21.4987 27.2657 21.2415C27.5396 20.9963 27.85 20.8094 28.198 20.681C28.5458 20.5525 28.8965 20.4883 29.25 20.4883C29.6035 20.4883 29.9539 20.5525 30.3019 20.681C30.6499 20.8094 30.9661 20.9963 31.2514 21.2415C31.5251 21.4987 31.7475 21.8196 31.9186 22.2049C32.0895 22.5905 32.175 23.0343 32.175 23.5365V24.1669H30.4303V23.5365C30.4303 23.1043 30.3131 22.7862 30.0797 22.5818C29.8457 22.3776 29.569 22.2752 29.25 22.2752C28.9307 22.2752 28.6539 22.3776 28.4204 22.5818C28.1866 22.7862 28.0698 23.1043 28.0698 23.5365V30.1233C28.0698 30.5551 28.1866 30.8736 28.4204 31.0779C28.6539 31.2824 28.9307 31.3843 29.25 31.3843C29.569 31.3843 29.8457 31.2824 30.0797 31.0779C30.3131 30.8736 30.4303 30.5551 30.4303 30.1233V27.7758H29.0447V26.199H32.175V30.1233C32.175 30.6487 32.0895 31.0982 31.9186 31.472C31.7475 31.846 31.5251 32.1554 31.2514 32.4006C30.9661 32.6573 30.6499 32.8501 30.3019 32.9787C29.9539 33.1068 29.6035 33.1712 29.25 33.1712C28.8965 33.1712 28.5458 33.1068 28.198 32.9787C27.85 32.8501 27.5396 32.6573 27.2657 32.4006C26.9806 32.1554 26.7526 31.846 26.5816 31.472C26.4106 31.0982 26.325 30.6487 26.325 30.1233V23.5365Z"
    fill="white"
  />
  <path
    d="M13.5287 16.0454C13.4953 16.0638 13.4623 16.0827 13.4286 16.1003C13.3846 16.1233 13.3399 16.1449 13.2951 16.1665C13.2755 16.1759 13.256 16.186 13.2362 16.1954C13.17 16.2258 13.1032 16.2548 13.0354 16.2826C12.4907 16.5028 11.9143 16.6143 11.3219 16.6146C10.7298 16.6146 10.1533 16.5028 9.60868 16.2826C9.54082 16.2548 9.47409 16.2258 9.4076 16.1954C9.38801 16.186 9.36879 16.1762 9.3492 16.1668C9.30444 16.1452 9.25938 16.1233 9.21515 16.1003C9.18181 16.083 9.14865 16.064 9.11556 16.0456C9.08627 16.0293 9.05668 16.0133 9.02763 15.9963C8.99972 15.98 8.97227 15.9624 8.94489 15.9456L10.4114 14.483L9.69875 13.792L8.99561 13.0909L7.5082 14.5332C7.49028 14.5049 7.47212 14.4763 7.45474 14.4475C7.43653 14.4173 7.41891 14.3872 7.40152 14.3568C7.38307 14.3239 7.36462 14.2911 7.3467 14.258C7.32938 14.2255 7.31253 14.1926 7.29598 14.1598C7.27967 14.1272 7.26342 14.0949 7.24794 14.0621C7.23163 14.0277 7.21621 13.9932 7.20074 13.9583C7.18609 13.9255 7.17169 13.8924 7.15782 13.859C7.14401 13.8254 7.13073 13.7915 7.1177 13.7576C7.10549 13.7253 7.09323 13.6927 7.08156 13.6599C7.06936 13.6258 7.05769 13.5911 7.04632 13.5563C7.03543 13.5238 7.02489 13.491 7.01507 13.4582C7.00424 13.4226 6.99418 13.3869 6.98441 13.3514C6.97549 13.3191 6.96679 13.2865 6.95864 13.2543C6.94941 13.2172 6.94102 13.1803 6.93263 13.1432C6.92554 13.1117 6.91876 13.08 6.91251 13.0485C6.90495 13.01 6.89786 12.9713 6.89137 12.9332C6.8859 12.902 6.88102 12.8708 6.87643 12.8395C6.87048 12.8006 6.8653 12.7611 6.86066 12.7218C6.85691 12.6909 6.85334 12.6594 6.85036 12.6282C6.84631 12.5892 6.84333 12.5497 6.84036 12.5104C6.83816 12.4782 6.83601 12.4459 6.83435 12.4136C6.83244 12.3757 6.83137 12.3378 6.8303 12.2999C6.82946 12.2649 6.82923 12.23 6.82923 12.195C6.82923 12.16 6.82946 12.1253 6.8303 12.0904C6.83137 12.0525 6.83244 12.0143 6.83435 11.9767C6.83601 11.9444 6.83816 11.9121 6.84036 11.8798C6.84333 11.8403 6.84631 11.8011 6.85036 11.7619C6.85334 11.7306 6.85691 11.6994 6.86066 11.6684C6.8653 11.6289 6.87048 11.5897 6.87643 11.5505C6.88102 11.5192 6.8859 11.4883 6.89137 11.4573C6.89786 11.4186 6.90495 11.3802 6.91251 11.342C6.91876 11.3103 6.92554 11.2788 6.93263 11.247C6.94102 11.2099 6.94941 11.1728 6.95864 11.136C6.96679 11.1034 6.97549 11.0711 6.98441 11.0388C6.99418 11.0031 7.00424 10.9679 7.01507 10.9323C7.02489 10.8993 7.03543 10.8667 7.04632 10.8339C7.05769 10.7992 7.06936 10.7645 7.08156 10.7301C7.09323 10.6975 7.10549 10.6652 7.1177 10.6327C7.13073 10.5988 7.14401 10.5649 7.15782 10.5312C7.17169 10.4979 7.18609 10.4648 7.20074 10.432C7.21621 10.397 7.23163 10.3623 7.24794 10.3279C7.26342 10.2953 7.27967 10.2627 7.29598 10.2305C7.31253 10.1976 7.32938 10.1648 7.3467 10.1325C7.36462 10.0992 7.38307 10.0663 7.40152 10.0335C7.41891 10.0028 7.43653 9.97265 7.45474 9.94273C7.47212 9.91393 7.49028 9.88566 7.5082 9.85709L8.99561 11.2996L9.69875 10.5982L10.4114 9.90726L8.94489 8.44471C8.97227 8.42761 8.99972 8.41028 9.02763 8.39372C9.05668 8.37692 9.08627 8.36093 9.11556 8.3446C9.14865 8.32593 9.18181 8.30754 9.21515 8.28963C9.25967 8.26668 9.30474 8.24479 9.3498 8.22318C9.36902 8.21388 9.38831 8.20398 9.4076 8.19514C9.47379 8.16447 9.54082 8.13514 9.60868 8.10792C10.1533 7.88745 10.7298 7.77587 11.3219 7.77563C11.9143 7.77587 12.4907 7.88774 13.0354 8.10792C13.1032 8.13514 13.17 8.16447 13.2362 8.19491C13.256 8.20422 13.2755 8.21411 13.2951 8.22371C13.3399 8.24508 13.3846 8.26668 13.4286 8.28963C13.4623 8.30754 13.4953 8.32622 13.5287 8.3446C13.558 8.36093 13.5874 8.37692 13.6164 8.39372C13.6443 8.41028 13.6715 8.42761 13.6992 8.44471L12.2329 9.90726L12.9458 10.5985L13.6484 11.2996L15.1359 9.85709C15.1538 9.88536 15.1719 9.91364 15.1893 9.94273C15.2075 9.97265 15.2249 10.003 15.2425 10.0338C15.2609 10.0663 15.2797 10.0992 15.2973 10.1325C15.3147 10.1648 15.3315 10.1976 15.3483 10.2305C15.3646 10.2627 15.3806 10.2953 15.3961 10.3279C15.4121 10.3623 15.4278 10.397 15.4433 10.432C15.458 10.4648 15.4724 10.4979 15.4859 10.5312C15.5001 10.5649 15.5131 10.5988 15.5261 10.6327C15.5386 10.6652 15.5508 10.6975 15.5624 10.7301C15.5749 10.7645 15.5866 10.7992 15.598 10.8339C15.6086 10.8664 15.6192 10.8993 15.6289 10.9323C15.6398 10.9679 15.6498 11.0031 15.6599 11.0388C15.6686 11.0711 15.6773 11.1034 15.6854 11.136C15.6946 11.1728 15.703 11.2099 15.7112 11.247C15.7182 11.2785 15.7253 11.3103 15.7315 11.342C15.7391 11.3805 15.7459 11.4186 15.7527 11.4573C15.7579 11.4883 15.763 11.5192 15.7676 11.5505C15.7733 11.5897 15.7788 11.6289 15.7833 11.6684C15.7872 11.6994 15.7907 11.7306 15.7936 11.7619C15.7975 11.8011 15.8007 11.8403 15.8035 11.8798C15.8059 11.9121 15.808 11.9444 15.8097 11.9767C15.8116 12.0143 15.8127 12.0525 15.8135 12.0904C15.8143 12.1253 15.8148 12.16 15.8148 12.195C15.8148 12.23 15.8143 12.2649 15.8135 12.2999C15.8127 12.3378 15.8116 12.3757 15.8097 12.4136C15.808 12.4459 15.8059 12.4782 15.8035 12.5104C15.8007 12.5497 15.7975 12.5892 15.7936 12.6282C15.7907 12.6594 15.7872 12.6909 15.7833 12.7218C15.7788 12.7611 15.7733 12.8006 15.7676 12.8398C15.763 12.8708 15.7579 12.902 15.7527 12.9329C15.7459 12.9713 15.7391 13.01 15.7315 13.0485C15.7253 13.08 15.7182 13.1117 15.7112 13.1432C15.703 13.1803 15.6946 13.2172 15.6854 13.2543C15.6773 13.2865 15.6686 13.3188 15.6599 13.3512C15.6498 13.3869 15.6398 13.4226 15.6289 13.4582C15.6192 13.491 15.6086 13.5238 15.598 13.5563C15.5866 13.5911 15.5749 13.6258 15.5624 13.6599C15.5508 13.6927 15.5386 13.7253 15.5261 13.7576C15.5131 13.7915 15.5001 13.8254 15.4859 13.859C15.4724 13.8924 15.458 13.9255 15.4433 13.9583C15.4278 13.9932 15.4121 14.0277 15.3961 14.0621C15.3806 14.0949 15.3646 14.1272 15.3483 14.1598C15.3315 14.1926 15.3147 14.2255 15.2973 14.258C15.2797 14.2911 15.2609 14.3239 15.2425 14.3568C15.2249 14.3872 15.2075 14.4173 15.1893 14.4478C15.1719 14.4763 15.1538 14.5049 15.1359 14.5332L13.6484 13.0909L12.9456 13.7917L12.2329 14.483L13.6992 15.9456C13.6715 15.9624 13.6443 15.98 13.6164 15.9963C13.5874 16.0133 13.558 16.0291 13.5287 16.0454ZM31.1947 12.2999C31.1939 12.3378 31.1926 12.3757 31.1907 12.4136C31.1893 12.4459 31.1868 12.4782 31.1846 12.5104C31.182 12.5497 31.1787 12.5892 31.1749 12.6282C31.1719 12.6594 31.1684 12.6909 31.1643 12.7218C31.1597 12.7611 31.1545 12.8006 31.1489 12.8398C31.1442 12.8708 31.139 12.902 31.1336 12.9329C31.1271 12.9713 31.1201 13.01 31.1125 13.0485C31.1062 13.08 31.0995 13.1115 31.0924 13.143C31.0843 13.1803 31.0756 13.2174 31.0664 13.2543C31.0582 13.2868 31.0498 13.3188 31.0408 13.3512C31.0311 13.3869 31.021 13.4226 31.0102 13.4582C31.0001 13.491 30.9895 13.5238 30.979 13.5563C30.9675 13.5911 30.9559 13.6258 30.9437 13.6599C30.932 13.6927 30.9198 13.7253 30.9073 13.7576C30.8943 13.7915 30.881 13.8254 30.8671 13.859C30.8533 13.8924 30.8389 13.9255 30.8243 13.9583C30.8091 13.9932 30.7933 14.0277 30.7771 14.0621C30.7616 14.0949 30.7456 14.1272 30.7293 14.1598C30.7127 14.1926 30.6959 14.2255 30.6782 14.258C30.6606 14.2911 30.6422 14.3239 30.6237 14.3565C30.6061 14.3869 30.5884 14.4173 30.5703 14.4478C30.5529 14.4766 30.535 14.5051 30.5168 14.5335L28.961 13.0247L28.2589 13.7251L27.5468 14.4157L29.0806 15.9456C29.053 15.9624 29.0256 15.98 28.9974 15.9963C28.9686 16.0133 28.9393 16.0291 28.91 16.0454C28.8766 16.0638 28.8435 16.0827 28.8098 16.1003C28.7659 16.1233 28.7211 16.1449 28.6766 16.1663C28.6567 16.1759 28.6372 16.186 28.6174 16.1954C28.5512 16.2258 28.4842 16.2548 28.4163 16.2826C27.8719 16.5028 27.2955 16.6143 26.7031 16.6146C26.1107 16.6146 25.5343 16.5028 24.9899 16.2826C24.9218 16.2548 24.855 16.2258 24.7888 16.1954C24.769 16.186 24.75 16.1762 24.7304 16.1668C24.6854 16.1452 24.6406 16.1233 24.5964 16.1003C24.5627 16.083 24.5299 16.064 24.4968 16.0456C24.4672 16.0293 24.4376 16.0133 24.4086 15.9963C24.3807 15.98 24.3532 15.9624 24.3255 15.9456L25.8597 14.4157L25.1473 13.7251L24.4452 13.0247L22.8894 14.5335C22.8712 14.5051 22.8533 14.4763 22.8357 14.4478C22.8178 14.4173 22.8001 14.3869 22.7828 14.3565C22.7641 14.3239 22.7456 14.2911 22.7277 14.258C22.7103 14.2255 22.6935 14.1926 22.6767 14.1596C22.6607 14.1272 22.6447 14.0949 22.6292 14.0624C22.6129 14.0277 22.5972 13.993 22.5817 13.9581C22.5673 13.9252 22.5529 13.8924 22.5394 13.8593C22.5252 13.8254 22.5119 13.7912 22.4986 13.7571C22.4864 13.7251 22.4742 13.6927 22.4628 13.6602C22.4503 13.6258 22.4386 13.5911 22.4273 13.5561C22.4164 13.5236 22.4058 13.491 22.3961 13.4582C22.3852 13.4226 22.3752 13.3869 22.3654 13.3512C22.3564 13.3188 22.348 13.2865 22.3399 13.2543C22.3307 13.2172 22.322 13.1806 22.3138 13.1432C22.3068 13.1117 22.3 13.08 22.2934 13.0482C22.2861 13.01 22.2791 12.9716 22.2726 12.9335C22.2671 12.9023 22.262 12.8708 22.2574 12.8395C22.2517 12.8006 22.2465 12.7613 22.2417 12.7221C22.2381 12.6909 22.2346 12.6594 22.2313 12.6282C22.2275 12.5892 22.2243 12.5497 22.2215 12.5107C22.2191 12.4784 22.2172 12.4459 22.2156 12.4136C22.2137 12.3757 22.2126 12.3378 22.2115 12.2999C22.2107 12.2649 22.2102 12.23 22.2102 12.195C22.2102 12.16 22.2107 12.1253 22.2115 12.0904C22.2126 12.0525 22.2137 12.0143 22.2156 11.9767C22.2172 11.9444 22.2191 11.9121 22.2215 11.8798C22.2243 11.8403 22.2275 11.8013 22.2313 11.7621C22.2346 11.7306 22.2381 11.6994 22.2417 11.6681C22.2465 11.6287 22.2517 11.5897 22.2574 11.5507C22.262 11.5192 22.2671 11.488 22.2726 11.457C22.2791 11.4183 22.2861 11.3805 22.2934 11.342C22.3 11.3103 22.3068 11.2785 22.3138 11.247C22.322 11.2099 22.3307 11.1728 22.3399 11.136C22.348 11.1034 22.3564 11.0711 22.3654 11.0388C22.3752 11.0031 22.3855 10.9676 22.3961 10.9321C22.4058 10.8992 22.4164 10.8667 22.4273 10.8342C22.4386 10.7994 22.4503 10.7645 22.4628 10.7298C22.4742 10.6975 22.4864 10.6652 22.4986 10.6332C22.5119 10.599 22.5252 10.5649 22.5394 10.531C22.5529 10.4979 22.5673 10.465 22.5817 10.4322C22.5972 10.3973 22.6129 10.3623 22.6292 10.3276C22.6447 10.295 22.6607 10.263 22.6767 10.2307C22.6935 10.1979 22.7103 10.1648 22.7277 10.1322C22.7456 10.0992 22.7641 10.0663 22.7828 10.0338C22.8001 10.003 22.8178 9.97265 22.8357 9.94273C22.8533 9.91364 22.8712 9.88536 22.8894 9.8568L24.4452 11.3655L25.1475 10.6649L25.8597 9.97476L24.3255 8.44471C24.3532 8.42761 24.3807 8.41028 24.4086 8.39372C24.4376 8.37692 24.4672 8.36093 24.4968 8.3446C24.5299 8.32593 24.563 8.30754 24.5964 8.28963C24.6406 8.26668 24.6857 8.24479 24.731 8.22318C24.7503 8.21388 24.7693 8.20398 24.7888 8.19514C24.855 8.16447 24.9218 8.13514 24.9899 8.10792C25.5343 7.88745 26.1107 7.77587 26.7031 7.77563C27.2955 7.77587 27.8719 7.88774 28.4163 8.10792C28.4842 8.13514 28.5512 8.16447 28.6174 8.19491C28.6372 8.20422 28.6567 8.2144 28.6766 8.22371C28.7211 8.24508 28.7659 8.26668 28.8098 8.28963C28.8435 8.30754 28.8766 8.32622 28.91 8.3446C28.9393 8.36093 28.9686 8.37692 28.9974 8.39372C29.0256 8.41028 29.053 8.42761 29.0806 8.44471L27.5468 9.97476L28.2586 10.6649L28.961 11.3655L30.5168 9.8568C30.535 9.88507 30.5529 9.91364 30.5703 9.9425C30.5884 9.97265 30.6061 10.003 30.6237 10.034C30.6422 10.0666 30.6606 10.0992 30.6782 10.1322C30.6959 10.1648 30.7127 10.1976 30.7293 10.2307C30.7456 10.2627 30.7616 10.2953 30.7771 10.3279C30.7933 10.3623 30.8091 10.397 30.8243 10.432C30.8389 10.4648 30.8533 10.4979 30.8671 10.5312C30.881 10.5649 30.8943 10.5988 30.9073 10.6327C30.9198 10.6652 30.932 10.6975 30.9437 10.7301C30.9559 10.7645 30.9675 10.7992 30.979 10.8339C30.9895 10.8664 31.0001 10.8993 31.0102 10.9323C31.021 10.9679 31.0311 11.0031 31.0408 11.0388C31.0498 11.0711 31.0582 11.1034 31.0664 11.1357C31.0756 11.1728 31.0843 11.2099 31.0924 11.247C31.0995 11.2788 31.1062 11.3103 31.1125 11.3418C31.1201 11.3802 31.1271 11.4186 31.1336 11.4573C31.139 11.4883 31.1442 11.5192 31.1489 11.5505C31.1545 11.5897 31.1597 11.6289 31.1643 11.6684C31.1684 11.6994 31.1719 11.7306 31.1749 11.7619C31.1787 11.8011 31.182 11.8403 31.1846 11.8798C31.1868 11.9121 31.1893 11.9444 31.1907 11.9767C31.1926 12.0143 31.1939 12.0525 31.1947 12.0904C31.1955 12.1253 31.1961 12.16 31.1961 12.195C31.1961 12.23 31.1955 12.2649 31.1947 12.2999ZM31.5942 16.3253C31.6327 16.2813 31.671 16.2373 31.7079 16.1924C31.7394 16.1543 31.7697 16.1161 31.8002 16.0776C31.8362 16.0317 31.8721 15.9856 31.9071 15.9391C31.9361 15.8999 31.9646 15.8604 31.9928 15.8206C32.0259 15.7739 32.0587 15.727 32.0905 15.6794C32.1182 15.6386 32.1445 15.5972 32.1708 15.5559C32.201 15.5087 32.2308 15.4614 32.2593 15.4136C32.2851 15.3707 32.3101 15.3274 32.3348 15.2837C32.3614 15.2367 32.3879 15.1894 32.4132 15.142C32.4373 15.0966 32.4607 15.0509 32.4838 15.0056C32.5071 14.9588 32.5301 14.9122 32.5524 14.8649C32.575 14.8174 32.5964 14.7699 32.6175 14.7219C32.6379 14.6754 32.658 14.6292 32.6772 14.5828C32.6976 14.5332 32.7171 14.4835 32.7362 14.4339C32.7538 14.3877 32.7712 14.3418 32.7874 14.2954C32.8056 14.2444 32.823 14.1935 32.8395 14.1422C32.8547 14.096 32.8694 14.0501 32.8832 14.004C32.899 13.9516 32.9139 13.8996 32.928 13.8473C32.9408 13.8011 32.953 13.7549 32.9646 13.7088C32.9777 13.6559 32.9899 13.6031 33.0015 13.5497C33.0118 13.5035 33.0219 13.4568 33.0311 13.4101C33.0417 13.3573 33.0512 13.3041 33.0604 13.2505C33.0683 13.2036 33.0762 13.1563 33.0832 13.1088C33.0908 13.056 33.0976 13.0031 33.1041 12.95C33.1101 12.902 33.1155 12.8537 33.1201 12.8054C33.1253 12.753 33.1296 12.7008 33.1335 12.6482C33.137 12.5991 33.1402 12.55 33.1427 12.5008C33.1451 12.4491 33.1467 12.3978 33.1478 12.3463C33.1492 12.2959 33.15 12.2457 33.15 12.195C33.15 12.1448 33.1492 12.0941 33.1478 12.0439C33.1467 11.9924 33.1451 11.9409 33.1427 11.8897C33.1402 11.8403 33.137 11.7912 33.1335 11.7418C33.1296 11.6895 33.1253 11.6369 33.1201 11.5846C33.1155 11.5363 33.1101 11.4883 33.1041 11.4402C33.0976 11.3871 33.0908 11.3343 33.0832 11.2815C33.0762 11.2342 33.0683 11.1867 33.0604 11.1394C33.0512 11.0863 33.0417 11.0333 33.0311 10.9802C33.0219 10.9334 33.0118 10.887 33.0015 10.8403C32.9899 10.7871 32.9777 10.7343 32.9646 10.6815C32.953 10.6353 32.9408 10.5892 32.928 10.543C32.9139 10.4907 32.899 10.4383 32.8832 10.3863C32.8694 10.3401 32.8547 10.294 32.8395 10.248C32.823 10.1968 32.8056 10.1458 32.7874 10.0946C32.7712 10.0484 32.7538 10.0023 32.7362 9.95661C32.7171 9.90673 32.6976 9.85709 32.6772 9.80768C32.658 9.76102 32.6379 9.71454 32.6175 9.66811C32.5964 9.62064 32.575 9.57281 32.5524 9.52504C32.5301 9.47838 32.5071 9.43137 32.4838 9.38465C32.4607 9.33905 32.4373 9.29339 32.4132 9.24802C32.3879 9.20077 32.3614 9.15353 32.3348 9.10635C32.3101 9.06308 32.2851 9.01959 32.2593 8.97662C32.2308 8.92885 32.201 8.88131 32.1708 8.83407C32.1445 8.79297 32.1182 8.75164 32.0905 8.71078C32.0587 8.6633 32.0259 8.61629 31.9928 8.56934C31.9646 8.52983 31.9361 8.49008 31.9071 8.45109C31.8721 8.40443 31.8362 8.35853 31.8002 8.31234C31.7697 8.27417 31.7394 8.23571 31.7079 8.19784C31.671 8.15299 31.6327 8.10897 31.5942 8.06495C31.5608 8.02678 31.5274 7.98884 31.4932 7.95149C31.4547 7.90958 31.4151 7.86795 31.3752 7.82686C31.3532 7.80391 31.3323 7.78043 31.3098 7.75772C31.2943 7.74226 31.278 7.72786 31.2623 7.71235C31.2463 7.69689 31.2311 7.68033 31.2151 7.66487C31.1907 7.6414 31.1654 7.6195 31.1407 7.59655C31.1005 7.55891 31.0603 7.52179 31.0194 7.4855C30.9795 7.45002 30.9391 7.4156 30.8984 7.38141C30.8558 7.34512 30.8129 7.3094 30.7694 7.2744C30.7287 7.24185 30.6875 7.21035 30.646 7.17862C30.6018 7.14496 30.5575 7.11136 30.5125 7.07881C30.4701 7.04807 30.427 7.01874 30.3838 6.98912C30.3391 6.95845 30.2943 6.92771 30.2489 6.89838C30.2039 6.86899 30.1583 6.84125 30.1127 6.81326C30.0682 6.78604 30.024 6.75853 29.9789 6.73212C29.9309 6.70437 29.8821 6.67768 29.8332 6.65122C29.7898 6.62751 29.7469 6.60345 29.7029 6.58079C29.6511 6.5541 29.5987 6.52898 29.5463 6.50363C29.5048 6.48338 29.4631 6.46283 29.421 6.44334C29.3656 6.41822 29.3094 6.39451 29.2535 6.37074C29.2134 6.35394 29.1737 6.33656 29.1336 6.32057C29.0744 6.29681 29.0145 6.2752 28.9547 6.25331C28.917 6.23914 28.8793 6.22474 28.8413 6.21139C28.7784 6.18979 28.7148 6.1703 28.6516 6.15057C28.6158 6.13933 28.5803 6.12762 28.5444 6.11691C28.4779 6.09771 28.4109 6.08038 28.3441 6.06328C28.3105 6.0545 28.2771 6.0449 28.2435 6.03688C28.174 6.02008 28.104 6.00562 28.0337 5.99098C28.0022 5.98454 27.971 5.97711 27.9395 5.97096C27.8665 5.95709 27.7932 5.94532 27.7197 5.93414C27.6907 5.92957 27.6619 5.92397 27.6326 5.91997C27.5558 5.90902 27.4787 5.90022 27.4016 5.89221C27.3756 5.88928 27.3498 5.88581 27.3238 5.88314C27.2402 5.8754 27.1566 5.8698 27.073 5.86499C27.0532 5.86419 27.0337 5.86206 27.0136 5.86125C26.9105 5.85619 26.8071 5.85352 26.7034 5.85352H26.7026C26.5992 5.85352 26.4958 5.85619 26.3924 5.86099C26.3726 5.86206 26.3527 5.86419 26.3327 5.86499C26.2493 5.8698 26.1658 5.8754 26.0825 5.88314C26.0561 5.88581 26.0298 5.88928 26.0035 5.89221C25.9267 5.90049 25.8499 5.90902 25.7737 5.91997C25.7446 5.92397 25.7156 5.92957 25.6865 5.93385C25.6132 5.94532 25.5397 5.95709 25.4667 5.97096C25.4352 5.97682 25.4038 5.98454 25.3723 5.99098C25.3023 6.00562 25.2323 6.02008 25.1628 6.03659C25.1289 6.0449 25.0955 6.0545 25.0615 6.06328C24.9948 6.08038 24.928 6.09771 24.8618 6.11691C24.826 6.12733 24.7904 6.13933 24.7546 6.15057C24.6914 6.1703 24.6279 6.18979 24.5649 6.21139C24.5269 6.22451 24.4892 6.23914 24.4515 6.25331C24.3915 6.27491 24.3318 6.29681 24.2726 6.32057C24.2322 6.33632 24.1926 6.35394 24.1524 6.37098C24.0965 6.39475 24.0406 6.41822 23.9853 6.44334C23.9429 6.46283 23.9014 6.48338 23.8593 6.50363C23.8072 6.52898 23.7551 6.5541 23.7033 6.58079C23.6596 6.60345 23.6161 6.62751 23.5727 6.65122C23.5242 6.67768 23.4753 6.70437 23.4273 6.73212C23.3823 6.75853 23.338 6.78604 23.2935 6.81297C23.2479 6.84125 23.2023 6.86899 23.157 6.89838C23.1119 6.92771 23.0672 6.95845 23.0224 6.98912C22.9793 7.01874 22.9361 7.04807 22.8935 7.07881C22.8487 7.11136 22.8045 7.14496 22.7603 7.17862C22.719 7.21035 22.6775 7.24185 22.6367 7.27469C22.593 7.3094 22.5505 7.34512 22.5076 7.38141C22.4671 7.4156 22.4267 7.45002 22.3868 7.4855C22.3458 7.52179 22.3057 7.55891 22.2655 7.59655C22.2408 7.6195 22.2156 7.6414 22.1912 7.66487C22.1749 7.68033 22.1599 7.69689 22.1439 7.71235C22.1309 7.72546 22.1171 7.73746 22.104 7.75052L22.0967 7.75748C22.0964 7.75778 22.0962 7.75801 22.0962 7.7583L21.3689 8.4837L19.7946 10.0538L19.7938 10.053L19.0187 10.8258L17.5623 9.37318L17.5614 9.374L15.9014 7.7185L15.8944 7.72517C15.89 7.7209 15.8857 7.71691 15.8813 7.71264C15.865 7.69689 15.8501 7.68033 15.8338 7.66487C15.8094 7.6414 15.7842 7.6195 15.7595 7.59655C15.7193 7.55891 15.6792 7.52179 15.6385 7.4855C15.5986 7.45002 15.5581 7.4156 15.5174 7.38118C15.4745 7.34512 15.4319 7.3094 15.3885 7.27469C15.3478 7.24185 15.3063 7.21035 15.2647 7.17862C15.2205 7.14496 15.1763 7.11136 15.1315 7.07881C15.0889 7.04807 15.0457 7.01874 15.0026 6.98883C14.9581 6.95845 14.9133 6.92771 14.868 6.89862C14.8229 6.86899 14.7771 6.84125 14.7315 6.81297C14.6873 6.78604 14.6427 6.75853 14.598 6.73236C14.5496 6.70437 14.5008 6.67768 14.452 6.65122C14.4088 6.62751 14.3657 6.60345 14.322 6.58079C14.2702 6.5541 14.2178 6.52898 14.1652 6.5034C14.1233 6.48338 14.0821 6.46283 14.04 6.44334C13.9844 6.41822 13.9282 6.39451 13.8723 6.37074C13.8324 6.35394 13.7928 6.33632 13.7526 6.32057C13.6932 6.29681 13.6335 6.27491 13.5738 6.25331C13.5358 6.23914 13.4981 6.22474 13.4601 6.21139C13.3974 6.18979 13.3339 6.1703 13.2704 6.15057C13.2349 6.13933 13.1993 6.12762 13.1632 6.11691C13.097 6.09771 13.03 6.08038 12.9632 6.06328C12.9295 6.0545 12.8961 6.0449 12.8622 6.03688C12.7927 6.02008 12.7227 6.00562 12.6527 5.99098C12.6212 5.98454 12.5901 5.97711 12.5583 5.97096C12.4853 5.95709 12.412 5.94561 12.3387 5.93414C12.3097 5.92957 12.2807 5.92397 12.2513 5.91997C12.1749 5.90902 12.0978 5.90022 12.0207 5.89221C11.9947 5.88928 11.9686 5.88581 11.9428 5.88314C11.8592 5.8754 11.7756 5.8698 11.6918 5.86499C11.6723 5.86419 11.6524 5.86206 11.6326 5.86125C11.5292 5.85619 11.4258 5.85352 11.3224 5.85352H11.3216C11.2182 5.85352 11.1145 5.85619 11.0114 5.86099C10.9913 5.86206 10.9715 5.86419 10.9514 5.86499C10.8682 5.8698 10.7845 5.8754 10.7015 5.88314C10.6749 5.88581 10.6486 5.88928 10.6223 5.89221C10.5455 5.90049 10.4689 5.90902 10.3924 5.91997C10.3634 5.92397 10.3343 5.92957 10.3053 5.93385C10.2321 5.94532 10.1588 5.95709 10.0857 5.97096C10.054 5.97711 10.0225 5.98454 9.99079 5.99098C9.92102 6.00562 9.85126 6.02008 9.78179 6.03659C9.74762 6.0449 9.71422 6.0545 9.68029 6.06328C9.61356 6.08038 9.54707 6.09771 9.48088 6.11691C9.44474 6.12762 9.40921 6.13933 9.37337 6.15057C9.31015 6.1703 9.24693 6.18979 9.18395 6.21139C9.14598 6.22474 9.108 6.23944 9.06996 6.25331C9.01055 6.2752 8.95055 6.29681 8.89167 6.32057C8.85125 6.33632 8.81161 6.35394 8.77149 6.37098C8.71553 6.39451 8.65964 6.41822 8.60428 6.44334C8.56195 6.46283 8.52016 6.48338 8.47837 6.50363C8.42599 6.52898 8.3739 6.5541 8.32206 6.58079C8.27836 6.60345 8.2352 6.62751 8.19151 6.65122C8.14294 6.67768 8.09436 6.70437 8.04609 6.73212C8.00102 6.75853 7.9568 6.78604 7.91227 6.81326C7.86667 6.84125 7.82107 6.86899 7.77607 6.89838C7.73071 6.92771 7.68624 6.95845 7.64142 6.98883C7.59826 7.01874 7.55516 7.04807 7.51254 7.07881C7.46778 7.11136 7.42355 7.14473 7.37926 7.17862C7.33807 7.21035 7.29652 7.24185 7.25556 7.27469C7.21211 7.3094 7.16925 7.34512 7.12663 7.38141C7.08591 7.4156 7.04549 7.45002 7.00561 7.4855C6.96489 7.52179 6.92471 7.55891 6.88459 7.59655C6.85988 7.6195 6.83464 7.6414 6.81018 7.66487C6.79393 7.68033 6.77875 7.69689 6.76273 7.71264C6.74726 7.7281 6.73095 7.74226 6.71523 7.75772C6.69297 7.78043 6.67207 7.80391 6.65011 7.82686C6.61023 7.86795 6.57058 7.90958 6.53207 7.95149C6.4976 7.98884 6.4642 8.02678 6.43111 8.06465C6.39253 8.10897 6.35432 8.15329 6.31711 8.19813C6.28592 8.23571 6.25526 8.27417 6.22514 8.31234C6.18877 8.35824 6.15294 8.40443 6.11793 8.45138C6.08888 8.49008 6.06067 8.52983 6.03245 8.56905C5.99906 8.61606 5.9662 8.6633 5.93447 8.71107C5.90703 8.75164 5.88048 8.79274 5.85411 8.83407C5.82399 8.88131 5.79446 8.92885 5.76595 8.97662C5.73987 9.01959 5.71517 9.06279 5.69047 9.10635C5.66362 9.15353 5.63731 9.20077 5.61177 9.24831C5.58766 9.29339 5.56457 9.33905 5.54153 9.38465C5.5179 9.43137 5.49486 9.47838 5.4726 9.52533C5.45003 9.57281 5.4289 9.62064 5.40771 9.66811C5.38735 9.71454 5.36699 9.76102 5.34774 9.80768C5.32739 9.85709 5.30812 9.90644 5.28913 9.95637C5.27149 10.0023 5.25412 10.0484 5.23756 10.0949C5.21938 10.1458 5.20228 10.1968 5.18546 10.2478C5.17054 10.294 5.15561 10.3401 5.14177 10.3863C5.12603 10.4383 5.11137 10.4907 5.09699 10.5427C5.08451 10.5892 5.07202 10.6353 5.06035 10.6815C5.04733 10.7346 5.03512 10.7871 5.02344 10.8403C5.01313 10.8867 5.00309 10.9334 4.99386 10.9802C4.98355 11.0333 4.97405 11.0863 4.96483 11.1394C4.95668 11.1867 4.94909 11.2342 4.94203 11.2812C4.93416 11.3343 4.92738 11.3871 4.92087 11.4402C4.91516 11.4883 4.90947 11.5363 4.90485 11.5846C4.8997 11.6369 4.89563 11.6895 4.89183 11.7418C4.8883 11.7912 4.88477 11.8403 4.8826 11.8897C4.87989 11.9409 4.87853 11.9924 4.87717 12.0439C4.87582 12.0941 4.875 12.1448 4.875 12.195C4.875 12.2457 4.87582 12.2959 4.87717 12.3463C4.87853 12.3978 4.87989 12.4491 4.8826 12.5008C4.88477 12.55 4.8883 12.5993 4.89183 12.6482C4.89563 12.7008 4.8997 12.753 4.90485 12.8054C4.90947 12.8537 4.91516 12.902 4.92087 12.95C4.92738 13.0031 4.93416 13.056 4.94203 13.1088C4.94909 13.1563 4.95668 13.2036 4.96483 13.2505C4.97405 13.3039 4.98355 13.357 4.99386 13.4101C5.00309 13.4568 5.01313 13.5035 5.02344 13.55C5.03512 13.6031 5.04733 13.6559 5.06035 13.7085C5.07202 13.7549 5.08451 13.8014 5.09699 13.8475C5.11137 13.8999 5.12603 13.9519 5.14177 14.004C5.15561 14.0501 5.17054 14.096 5.18546 14.1422C5.20228 14.1935 5.21938 14.2444 5.23756 14.2951C5.25412 14.3416 5.27149 14.3877 5.28913 14.4339C5.30812 14.4835 5.32739 14.5332 5.34774 14.5825C5.36699 14.629 5.38735 14.6754 5.40771 14.7219C5.4289 14.7699 5.45003 14.8172 5.4726 14.8646C5.49486 14.9119 5.5179 14.9588 5.54153 15.0056C5.56457 15.0512 5.58766 15.0966 5.61177 15.142C5.63731 15.1894 5.66362 15.237 5.69047 15.2837C5.71517 15.3274 5.73987 15.3707 5.76595 15.4136C5.79446 15.4614 5.82399 15.5087 5.85411 15.5559C5.88048 15.5972 5.90703 15.6386 5.93447 15.6794C5.9662 15.727 5.99906 15.7739 6.03245 15.8209C6.06067 15.8607 6.08888 15.8999 6.11793 15.9391C6.15294 15.9856 6.18877 16.0317 6.22514 16.0776C6.25526 16.1163 6.28592 16.1543 6.31711 16.1921C6.35432 16.2373 6.39253 16.2815 6.43111 16.3256C6.4642 16.3635 6.4976 16.4014 6.53207 16.4388C6.57058 16.4806 6.61023 16.522 6.65011 16.5634C6.67207 16.5861 6.69297 16.6098 6.71523 16.6323C6.73095 16.648 6.74726 16.6624 6.76273 16.6776C6.77875 16.6934 6.79393 16.7099 6.81018 16.7256C6.83464 16.7492 6.85988 16.7708 6.88459 16.7937C6.92471 16.8311 6.96489 16.8684 7.00561 16.9047C7.04549 16.9402 7.08591 16.9744 7.12663 17.0088C7.16925 17.0449 7.21211 17.0809 7.25556 17.1158C7.29652 17.1484 7.33807 17.1799 7.37926 17.2116C7.42355 17.2452 7.46778 17.2789 7.51254 17.3112C7.55516 17.3419 7.59826 17.3715 7.64142 17.4011C7.68624 17.4316 7.73071 17.4625 7.77607 17.4919C7.82107 17.521 7.86667 17.549 7.91227 17.577C7.9568 17.6042 8.00102 17.6317 8.04609 17.6579C8.09436 17.6857 8.14294 17.7124 8.19151 17.739C8.2352 17.7628 8.27836 17.7868 8.32206 17.8095C8.3739 17.8362 8.42599 17.8612 8.47837 17.8863C8.52016 17.9069 8.56195 17.9274 8.60428 17.9466C8.65964 17.972 8.71553 17.9958 8.77149 18.0192C8.81161 18.0363 8.85125 18.0536 8.89167 18.0699C8.95055 18.0935 9.01055 18.1153 9.06996 18.137C9.108 18.1511 9.14598 18.1655 9.18395 18.1786C9.24693 18.2002 9.31015 18.22 9.37337 18.2397C9.40921 18.2509 9.44474 18.2629 9.48088 18.2733C9.54707 18.2926 9.61356 18.3096 9.68029 18.327C9.71422 18.3355 9.74762 18.3451 9.78179 18.3534C9.85126 18.3702 9.92102 18.3846 9.99079 18.399C10.0225 18.4057 10.054 18.4132 10.0857 18.4193C10.1588 18.4332 10.2321 18.4446 10.3053 18.4561C10.3343 18.4607 10.3634 18.4663 10.3924 18.4705C10.4689 18.4812 10.5455 18.4898 10.6223 18.4977C10.6486 18.5007 10.6749 18.5047 10.7015 18.5071C10.7845 18.5148 10.8682 18.5202 10.9514 18.525C10.9715 18.5261 10.9913 18.5282 11.0114 18.5292C11.1145 18.5338 11.2182 18.5364 11.3216 18.5364H11.3222C11.4256 18.5364 11.5292 18.5338 11.6326 18.5292C11.6524 18.5282 11.6723 18.5261 11.6918 18.525C11.7756 18.5202 11.8592 18.5148 11.9428 18.5071C11.9686 18.5047 11.9947 18.5007 12.0207 18.4977C12.0978 18.4898 12.1749 18.4812 12.2513 18.4703C12.2807 18.4663 12.3097 18.4607 12.3387 18.4561C12.412 18.4446 12.4853 18.4329 12.5583 18.4193C12.5901 18.4132 12.6212 18.4057 12.6527 18.399C12.7227 18.3846 12.7927 18.3702 12.8622 18.3534C12.8961 18.3451 12.9295 18.3358 12.9632 18.327C13.03 18.3096 13.097 18.2926 13.1632 18.2733C13.1993 18.2629 13.2349 18.2509 13.2704 18.2397C13.3339 18.22 13.3974 18.2002 13.4601 18.1786C13.4981 18.1655 13.5358 18.1511 13.5738 18.1372C13.6335 18.1153 13.6932 18.0935 13.7526 18.0697C13.7928 18.0536 13.8324 18.0363 13.8723 18.0192C13.9285 17.9958 13.9844 17.972 14.0397 17.9466C14.0821 17.9274 14.1236 17.9069 14.1657 17.8863C14.2178 17.8612 14.2702 17.8362 14.3217 17.8092C14.3657 17.7865 14.4088 17.7628 14.4523 17.739C14.5011 17.7124 14.5499 17.6857 14.598 17.6579C14.6427 17.6317 14.6873 17.6045 14.7315 17.577C14.7771 17.549 14.8229 17.521 14.868 17.4919C14.9133 17.4625 14.9581 17.4316 15.0026 17.4011C15.0457 17.3715 15.0889 17.3419 15.1315 17.3112C15.1763 17.2789 15.2205 17.2452 15.2647 17.2116C15.3063 17.1799 15.3478 17.1484 15.3885 17.1158C15.4319 17.0809 15.4745 17.0449 15.5174 17.0088C15.5581 16.9744 15.5986 16.9402 15.6385 16.9047C15.6792 16.8684 15.7193 16.8311 15.7595 16.7937C15.7842 16.7708 15.8094 16.7492 15.8338 16.7256C15.8501 16.7099 15.865 16.6934 15.8813 16.6776C15.8857 16.6734 15.89 16.6693 15.8944 16.6648L15.9014 16.6717L17.5614 15.0163L17.5623 15.017L19.0187 13.5644L19.7938 14.3375L19.7946 14.3365L21.3689 15.9063L22.0962 16.632C22.0962 16.6322 22.0967 16.6325 22.0967 16.6328L22.1038 16.6397C22.1168 16.6525 22.1309 16.6648 22.1439 16.6776C22.1599 16.6936 22.1749 16.7099 22.1912 16.7256C22.2156 16.7492 22.2408 16.7708 22.2655 16.7937C22.3057 16.8311 22.3458 16.8684 22.3868 16.9047C22.4267 16.9402 22.4671 16.9744 22.5076 17.0088C22.5505 17.0449 22.593 17.0809 22.6367 17.1158C22.6775 17.1484 22.719 17.1799 22.7603 17.2113C22.8045 17.2452 22.8487 17.2789 22.8935 17.3112C22.9361 17.3419 22.9793 17.3715 23.0224 17.4011C23.0672 17.4316 23.1119 17.4625 23.157 17.4919C23.2023 17.521 23.2479 17.549 23.2935 17.577C23.338 17.6042 23.3823 17.6317 23.4273 17.6579C23.4753 17.6857 23.5242 17.7124 23.5727 17.739C23.6161 17.7628 23.6596 17.7865 23.7033 17.8092C23.7551 17.8362 23.8072 17.8612 23.8593 17.8863C23.9014 17.9069 23.9429 17.9274 23.9853 17.9466C24.0406 17.972 24.0965 17.9958 24.1524 18.0192C24.1926 18.0363 24.2322 18.0536 24.2726 18.0699C24.3318 18.0935 24.3915 18.1153 24.4515 18.1372C24.4892 18.1511 24.5269 18.1655 24.5649 18.1786C24.6279 18.2002 24.6914 18.22 24.7546 18.2397C24.7904 18.2509 24.826 18.2629 24.8618 18.2733C24.928 18.2926 24.9948 18.3096 25.0615 18.327C25.0955 18.3358 25.1289 18.3451 25.1628 18.3534C25.2323 18.3702 25.3023 18.3849 25.3723 18.399C25.4038 18.4057 25.4352 18.4132 25.4667 18.4193C25.5397 18.4332 25.6132 18.4446 25.6865 18.4561C25.7156 18.4607 25.7446 18.4663 25.7737 18.4705C25.8499 18.4812 25.9267 18.4898 26.0035 18.4977C26.0298 18.5007 26.0561 18.5047 26.0825 18.5071C26.1658 18.5148 26.2493 18.5202 26.3327 18.525C26.3527 18.5261 26.3726 18.5282 26.3924 18.5292C26.4958 18.5338 26.5992 18.5364 26.7026 18.5364H26.7034C26.8071 18.5364 26.9105 18.5338 27.0136 18.5292C27.0337 18.5282 27.0532 18.5261 27.073 18.525C27.1566 18.5202 27.2402 18.5148 27.3238 18.5071C27.3498 18.5047 27.3756 18.5007 27.4016 18.4977C27.4787 18.4898 27.5558 18.4812 27.6326 18.4703C27.6619 18.4663 27.6907 18.4607 27.7197 18.4561C27.7932 18.4446 27.8665 18.4329 27.9395 18.4193C27.971 18.4132 28.0022 18.4057 28.0337 18.399C28.104 18.3849 28.174 18.3702 28.2435 18.3534C28.2771 18.3451 28.3105 18.3358 28.3441 18.327C28.4109 18.3096 28.4779 18.2926 28.5444 18.2733C28.5803 18.2629 28.6158 18.2509 28.6516 18.2397C28.7148 18.22 28.7784 18.2002 28.8413 18.1786C28.8793 18.1655 28.917 18.1511 28.9547 18.1372C29.0145 18.1153 29.0744 18.0935 29.1336 18.0697C29.1737 18.0536 29.2136 18.036 29.2535 18.0192C29.3094 17.9958 29.3656 17.972 29.421 17.9466C29.4631 17.9274 29.5048 17.9069 29.5466 17.8863C29.599 17.8612 29.6514 17.8362 29.7029 17.8092C29.7469 17.7865 29.79 17.7628 29.8335 17.739C29.8821 17.7124 29.9309 17.6857 29.9789 17.6579C30.024 17.6317 30.0682 17.6042 30.1127 17.577C30.1583 17.549 30.2039 17.521 30.2489 17.4919C30.2943 17.4625 30.3391 17.4316 30.3838 17.4008C30.427 17.3715 30.4701 17.3419 30.5125 17.3112C30.5575 17.2789 30.6018 17.245 30.646 17.2113C30.6875 17.1799 30.7287 17.1484 30.7694 17.1158C30.8129 17.0809 30.8558 17.0449 30.8984 17.0086C30.9391 16.9744 30.9795 16.9402 31.0194 16.9047C31.0603 16.8684 31.1005 16.8311 31.1407 16.7937C31.1654 16.7708 31.1907 16.7492 31.2151 16.7256C31.2311 16.7099 31.2463 16.6936 31.2623 16.6776C31.278 16.6624 31.2943 16.648 31.3098 16.6323C31.3323 16.6095 31.3532 16.5861 31.3752 16.5631C31.4151 16.522 31.4547 16.4806 31.4932 16.4388C31.5274 16.4014 31.5608 16.3632 31.5942 16.3253Z"
    fill="white"
  />
</svg>
